<?xml version="1.0" standalone="no"?>
<!DOCTYPE svg PUBLIC "-//W3C//DTD SVG 20010904//EN"
 "http://www.w3.org/TR/2001/REC-SVG-20010904/DTD/svg10.dtd">
<svg version="1.0" xmlns="http://www.w3.org/2000/svg"
 width="460.000000pt" height="460.000000pt" viewBox="0 0 460.000000 460.000000"
 preserveAspectRatio="xMidYMid meet">
<metadata>
Created by potrace 1.14, written by Peter Selinger 2001-2017
</metadata>
<g transform="translate(0.000000,460.000000) scale(0.100000,-0.100000)"
fill="#000000" stroke="none">
<path d="M0 2300 l0 -2300 2300 0 2300 0 0 2300 0 2300 -2300 0 -2300 0 0
-2300z m2363 1803 c53 -80 171 -204 257 -270 316 -240 684 -213 1028 75 l52
44 0 -1319 c0 -910 -3 -1338 -11 -1378 -42 -226 -257 -364 -699 -450 -233 -45
-421 -148 -612 -333 l-77 -75 -88 79 c-98 88 -89 81 -162 135 -152 112 -336
184 -546 213 -58 8 -248 71 -319 106 -139 69 -243 178 -277 290 -19 65 -26
2738 -7 2723 7 -5 45 -35 83 -65 96 -76 214 -141 315 -174 75 -24 100 -28 220
-28 127 0 140 2 224 32 48 17 123 53 165 79 128 80 322 286 372 397 12 26 14
27 24 11 5 -10 32 -51 58 -92z"/>
<path d="M2266 3961 c-77 -126 -214 -250 -352 -319 -128 -64 -193 -77 -374
-77 -152 0 -172 2 -250 28 -76 24 -186 79 -247 123 l-23 16 0 -1165 c0 -825 3
-1182 11 -1219 25 -118 91 -198 219 -267 107 -57 269 -112 375 -126 73 -10
190 -43 267 -75 113 -48 276 -165 373 -269 17 -17 34 -31 38 -31 5 0 41 30 81
67 80 74 191 159 251 191 108 58 248 104 355 117 86 11 273 69 344 108 98 54
185 129 216 186 46 87 44 39 47 1299 2 650 1 1182 -2 1182 -2 0 -31 -17 -62
-37 -71 -46 -127 -72 -218 -104 -63 -22 -86 -24 -240 -24 -183 0 -219 7 -359
69 -137 62 -297 203 -366 324 -19 34 -38 62 -41 62 -3 0 -23 -27 -43 -59z
m324 -411 c0 -5 -4 -10 -8 -10 -11 0 -100 -58 -128 -83 -20 -17 -24 -17 -52
-3 -27 14 -42 13 -42 -4 0 -3 36 -24 80 -45 56 -27 83 -36 91 -28 7 7 1 14
-21 23 -17 7 -29 16 -28 21 2 4 34 32 73 63 82 65 78 67 106 -67 23 -112 23
-146 3 -245 -56 -274 -292 -452 -601 -452 -35 0 -63 4 -63 8 0 28 140 309 179
361 19 24 19 24 46 7 19 -13 30 -15 38 -7 14 14 17 11 -80 59 -60 31 -82 38
-86 28 -3 -8 8 -20 29 -30 l34 -16 -30 -52 c-33 -56 -78 -148 -126 -261 l-29
-68 -15 33 c-10 24 -14 72 -14 173 -1 121 2 148 22 202 88 238 248 363 507
396 62 8 115 7 115 -3z m761 -145 l11 -45 47 0 46 -1 -34 -29 c-33 -28 -33
-30 -23 -72 6 -23 10 -44 8 -45 -1 -1 -18 10 -37 26 l-34 29 -37 -30 c-42 -33
-43 -32 -26 24 11 39 11 40 -23 66 l-34 27 44 5 c42 5 45 7 59 48 7 23 15 42
18 42 2 0 9 -20 15 -45z m-2065 -8 c9 -28 16 -33 56 -37 l46 -5 -34 -25 c-35
-26 -35 -25 -17 -97 l6 -27 -39 31 -39 31 -39 -31 c-32 -25 -38 -28 -33 -12
21 71 21 75 -14 105 l-34 29 46 1 c45 0 46 1 58 41 14 45 20 44 37 -4z m430 3
c15 -38 18 -40 61 -40 l45 0 -34 -27 c-18 -15 -35 -28 -37 -29 -2 -2 4 -23 12
-48 9 -26 14 -46 11 -46 -3 0 -21 12 -40 26 l-34 27 -40 -27 c-22 -14 -40 -24
-40 -21 0 2 7 23 16 45 16 39 16 42 -2 55 -63 45 -63 44 -12 45 46 0 47 1 59
40 7 22 14 40 16 40 2 0 10 -18 19 -40z m1264 -40 l45 -1 -36 -32 -37 -32 14
-39 c8 -22 13 -41 11 -42 -2 -2 -20 8 -40 23 l-37 26 -28 -19 c-52 -39 -54
-39 -38 1 22 51 20 56 -21 88 l-36 27 45 0 c44 0 46 1 63 43 l17 42 16 -42
c16 -42 17 -43 62 -43z m-1484 -163 c10 -29 15 -32 60 -37 l49 -5 -38 -31
c-39 -32 -39 -39 -11 -109 6 -15 -1 -12 -34 14 -39 30 -45 32 -60 18 -9 -8
-27 -19 -39 -26 -20 -10 -21 -9 -13 19 5 16 12 35 16 41 4 8 -8 25 -32 46
l-39 33 47 0 c46 0 47 1 59 40 13 44 19 44 35 -3z m1640 0 c10 -29 15 -32 60
-35 l48 -3 -38 -33 c-38 -32 -39 -33 -26 -70 6 -20 10 -39 7 -42 -2 -3 -18 7
-35 21 l-31 26 -38 -25 c-20 -14 -38 -24 -40 -22 -2 1 3 20 11 42 13 39 13 39
-23 71 l-36 32 47 1 c46 0 47 1 59 40 13 44 19 44 35 -3z m273 -237 l46 -1
-34 -29 c-35 -29 -35 -34 -14 -104 4 -16 0 -15 -29 8 -42 31 -48 32 -82 5 -15
-12 -29 -19 -31 -17 -2 2 1 21 7 42 11 36 11 38 -22 64 l-35 27 44 5 c42 5 45
7 60 50 l15 45 15 -47 c15 -48 15 -48 60 -48z m-2120 40 c12 -39 13 -40 58
-40 l46 0 -36 -32 -36 -33 14 -40 c8 -21 13 -41 11 -43 -2 -1 -17 9 -34 23
-36 30 -46 31 -80 4 -30 -24 -39 -13 -24 31 10 26 8 32 -24 60 l-35 30 45 0
c44 0 46 1 57 40 7 22 15 40 19 40 4 0 12 -18 19 -40z m431 -5 c11 -33 14 -35
58 -35 51 -1 51 0 -13 -46 -19 -13 -19 -16 -3 -59 16 -43 16 -45 -1 -36 -10 6
-23 17 -31 25 -17 22 -42 20 -74 -5 -35 -27 -40 -21 -21 24 l15 36 -37 30 -38
31 47 0 c46 0 47 1 59 40 14 45 23 44 39 -5z m1266 -35 l47 0 -37 -27 c-38
-29 -37 -28 -19 -103 l6 -24 -32 27 c-39 33 -50 33 -85 6 -31 -24 -43 -20 -27
9 18 34 13 55 -21 84 l-33 28 43 0 c42 0 44 2 60 41 l16 42 18 -42 c17 -40 19
-41 64 -41z m482 -927 c-3 -541 -5 -592 -22 -639 -35 -97 -131 -183 -266 -239
-82 -33 -210 -71 -275 -80 -182 -25 -362 -121 -534 -285 l-64 -61 -56 53 c-30
29 -58 56 -61 59 -3 3 -42 33 -87 67 -125 91 -239 141 -389 167 -165 29 -289
73 -394 141 -79 51 -100 73 -136 144 l-29 55 -3 603 -3 602 1161 0 1161 0 -3
-587z"/>
<path d="M2281 3396 c-8 -9 10 -22 75 -55 46 -23 89 -39 94 -36 17 11 2 23
-80 64 -61 31 -81 37 -89 27z"/>
<path d="M2205 3329 c-8 -13 -17 -7 84 -58 53 -27 87 -39 93 -33 11 11 9 13
-90 64 -84 43 -79 41 -87 27z"/>
<path d="M2146 3255 c-3 -10 18 -27 72 -55 80 -42 97 -46 107 -30 3 5 -34 30
-84 54 -70 36 -90 42 -95 31z"/>
<path d="M1300 2315 c0 -16 6 -25 15 -25 8 0 15 5 15 10 0 6 7 10 15 10 11 0
15 -13 15 -54 0 -39 -4 -55 -15 -60 -29 -11 -15 -26 24 -26 l38 0 -5 70 c-3
48 -1 70 7 70 6 0 11 -4 11 -10 0 -5 7 -10 15 -10 9 0 15 9 15 25 0 24 -2 25
-75 25 -73 0 -75 -1 -75 -25z"/>
<path d="M1470 2325 c0 -8 5 -15 10 -15 6 0 10 -25 10 -55 0 -30 -4 -55 -10
-55 -5 0 -10 -7 -10 -15 0 -11 11 -15 40 -15 29 0 40 4 40 15 0 8 -4 15 -10
15 -5 0 -10 9 -10 20 0 16 7 20 30 20 23 0 30 -4 30 -20 0 -11 -4 -20 -10 -20
-5 0 -10 -7 -10 -15 0 -11 11 -15 40 -15 29 0 40 4 40 15 0 8 -4 15 -10 15 -5
0 -10 25 -10 55 0 30 5 55 10 55 6 0 10 7 10 15 0 11 -11 15 -40 15 -38 0 -52
-12 -30 -25 22 -14 10 -35 -20 -35 -30 0 -42 21 -20 35 22 13 8 25 -30 25 -29
0 -40 -4 -40 -15z"/>
<path d="M1670 2325 c0 -8 5 -15 10 -15 6 0 10 -25 10 -55 0 -30 -4 -55 -10
-55 -5 0 -10 -7 -10 -15 0 -12 14 -15 70 -15 l70 0 0 30 c0 31 -16 41 -26 15
-4 -8 -17 -15 -30 -15 -18 0 -24 6 -24 21 0 18 4 20 25 15 22 -6 25 -3 25 20
0 23 -3 25 -25 20 -20 -5 -25 -3 -25 14 0 15 7 20 25 20 14 0 25 -4 25 -10 0
-5 7 -10 15 -10 9 0 15 9 15 25 0 24 -2 25 -70 25 -56 0 -70 -3 -70 -15z"/>
<path d="M1905 2255 l0 -85 63 0 c59 0 62 1 62 24 0 31 -20 44 -32 22 -5 -9
-18 -16 -28 -16 -17 0 -20 7 -20 55 0 30 5 55 10 55 6 0 10 7 10 15 0 10 -10
15 -32 15 l-33 0 0 -85z"/>
<path d="M2050 2325 c0 -8 5 -15 10 -15 6 0 10 -25 10 -55 0 -30 -4 -55 -10
-55 -5 0 -10 -7 -10 -15 0 -12 14 -15 70 -15 l70 0 0 30 c0 31 -16 41 -26 15
-4 -8 -17 -15 -30 -15 -18 0 -24 6 -24 21 0 18 4 20 25 15 22 -6 25 -3 25 19
0 22 -3 25 -25 19 -21 -5 -25 -3 -25 15 0 16 6 21 25 21 14 0 25 -4 25 -10 0
-5 7 -10 15 -10 9 0 15 9 15 25 0 24 -2 25 -70 25 -56 0 -70 -3 -70 -15z"/>
<path d="M2277 2333 c-2 -4 -13 -36 -23 -70 -10 -35 -22 -63 -26 -63 -5 0 -8
-7 -8 -15 0 -10 11 -15 35 -15 24 0 35 5 35 15 0 8 -4 15 -10 15 -5 0 -10 5
-10 10 0 6 11 10 25 10 22 0 25 -3 19 -25 -6 -23 -4 -25 30 -25 34 0 47 15 30
33 -4 3 -16 35 -28 69 -17 48 -27 64 -43 66 -12 2 -23 0 -26 -5z m29 -90 c-11
-12 -27 13 -20 32 7 17 8 17 17 -3 6 -12 7 -25 3 -29z"/>
<path d="M2440 2327 c-21 -11 -25 -20 -28 -68 -4 -68 10 -83 79 -85 47 -1 49
0 49 28 0 15 5 28 10 28 6 0 10 7 10 15 0 11 -11 15 -40 15 -41 0 -49 -7 -28
-28 16 -16 -3 -35 -25 -26 -25 9 -23 80 2 93 13 7 24 6 37 -4 27 -20 34 -18
34 9 0 35 -53 47 -100 23z"/>
<path d="M2580 2325 c0 -8 5 -15 10 -15 6 0 10 -24 10 -54 0 -59 9 -72 58 -82
22 -4 40 -1 57 10 22 14 25 24 25 71 0 30 5 55 10 55 6 0 10 7 10 15 0 10 -10
15 -34 15 l-34 0 6 -65 c4 -54 2 -66 -12 -71 -27 -10 -46 15 -46 62 0 23 5 46
10 49 22 13 8 25 -30 25 -29 0 -40 -4 -40 -15z"/>
<path d="M2780 2325 c0 -8 5 -15 10 -15 6 0 10 -25 10 -55 0 -30 -4 -55 -10
-55 -5 0 -10 -7 -10 -15 0 -12 14 -15 70 -15 l70 0 0 30 c0 31 -16 41 -26 15
-4 -8 -17 -15 -30 -15 -18 0 -24 6 -24 21 0 18 4 20 25 15 22 -6 25 -3 25 20
0 23 -3 25 -25 20 -20 -5 -25 -3 -25 14 0 15 7 20 25 20 14 0 25 -4 25 -10 0
-5 7 -10 15 -10 9 0 15 9 15 25 0 24 -2 25 -70 25 -56 0 -70 -3 -70 -15z"/>
<path d="M3042 2330 c-30 -13 -46 -51 -38 -94 9 -46 44 -71 88 -62 48 10 58
23 58 81 0 32 -5 57 -13 64 -20 16 -69 22 -95 11z m56 -32 c24 -24 9 -98 -19
-98 -15 0 -39 32 -39 52 0 20 26 58 40 58 3 0 11 -5 18 -12z"/>
<path d="M3185 2255 l0 -85 33 0 c32 0 33 1 26 36 -6 34 -5 36 15 29 18 -5 21
-2 21 18 0 20 -4 24 -20 20 -15 -4 -20 0 -20 16 0 22 33 30 45 11 12 -20 36
-11 33 13 -3 20 -9 22 -68 25 l-65 3 0 -86z"/>
<path d="M1361 2036 c-14 -7 -28 -22 -32 -32 -12 -31 -10 -117 4 -144 26 -51
134 -60 177 -15 30 32 31 149 1 178 -25 26 -115 34 -150 13z m99 -46 c39 -39
16 -130 -34 -130 -33 0 -46 19 -46 69 0 71 40 101 80 61z"/>
<path d="M1570 2036 c0 -8 5 -18 10 -21 6 -3 10 -39 10 -80 0 -41 -4 -77 -10
-80 -5 -3 -10 -13 -10 -21 0 -10 14 -14 55 -14 40 0 55 4 55 14 0 8 -7 16 -15
20 -23 8 -19 56 4 56 21 0 33 -33 24 -68 -5 -21 -2 -22 46 -22 54 0 67 15 35
40 -32 27 -37 51 -15 67 30 20 29 86 -1 107 -31 22 -188 23 -188 2z m156 -41
c9 -23 -15 -45 -47 -45 -26 0 -29 4 -29 30 0 28 3 30 35 30 23 0 38 -6 41 -15z"/>
<path d="M1830 2035 c0 -9 7 -18 15 -21 11 -5 15 -24 15 -80 0 -57 -4 -76 -15
-80 -8 -4 -15 -15 -15 -25 0 -16 7 -19 43 -18 73 1 140 16 153 34 20 27 27 97
15 142 -14 50 -43 63 -142 63 -55 0 -69 -3 -69 -15z m156 -50 c12 -18 15 -38
11 -67 -6 -44 -19 -58 -54 -58 -22 0 -23 4 -23 75 0 73 1 75 25 75 15 0 31 -9
41 -25z"/>
<path d="M2080 2036 c0 -8 7 -16 15 -20 12 -4 15 -23 15 -81 0 -58 -3 -77 -15
-81 -25 -10 -18 -44 9 -44 69 0 114 30 71 46 -11 5 -15 23 -15 79 0 56 4 74
15 79 8 3 15 12 15 21 0 12 -12 15 -55 15 -40 0 -55 -4 -55 -14z"/>
<path d="M2230 2036 c0 -8 5 -18 10 -21 6 -3 10 -39 10 -80 0 -41 -4 -77 -10
-80 -5 -3 -10 -13 -10 -21 0 -10 13 -14 50 -14 38 0 50 4 50 15 0 9 -7 18 -15
21 -11 5 -15 21 -14 63 l0 56 37 -77 c36 -77 37 -78 74 -78 l38 0 0 95 c0 76
3 97 15 101 8 4 15 12 15 20 0 10 -15 14 -55 14 -40 0 -55 -4 -55 -14 0 -8 7
-16 15 -20 11 -4 15 -21 14 -63 l0 -58 -36 78 -36 77 -48 0 c-36 0 -49 -4 -49
-14z"/>
<path d="M2585 2038 c-2 -7 -14 -47 -25 -88 -12 -41 -28 -82 -36 -91 -24 -26
-17 -49 14 -49 61 0 97 28 57 44 -27 10 -16 26 19 26 38 0 57 -16 32 -26 -22
-8 -20 -34 2 -34 9 0 34 -3 55 -6 35 -6 37 -5 37 20 0 14 -4 26 -10 26 -5 0
-17 26 -26 58 -34 118 -43 132 -80 132 -19 0 -36 -6 -39 -12z m45 -87 c8 -28
6 -31 -12 -31 -16 0 -19 5 -14 23 3 12 6 28 6 36 0 21 9 8 20 -28z"/>
<path d="M2780 2035 c0 -9 6 -18 13 -20 14 -6 11 -144 -4 -159 -23 -25 -8 -36
46 -36 40 0 55 4 55 14 0 8 -7 16 -15 20 -23 8 -19 56 4 56 21 0 33 -33 24
-68 -5 -21 -2 -22 51 -22 43 0 56 3 56 15 0 8 -4 15 -9 15 -5 0 -19 14 -32 31
l-21 30 21 15 c30 21 29 87 -1 108 -32 23 -188 23 -188 1z m156 -40 c9 -23
-15 -45 -47 -45 -26 0 -29 4 -29 30 0 28 3 30 35 30 23 0 38 -6 41 -15z"/>
<path d="M3040 2035 c0 -8 4 -15 9 -15 15 0 81 -112 81 -137 0 -12 -7 -26 -17
-31 -9 -5 -14 -16 -11 -23 7 -19 118 -13 118 6 0 7 -7 15 -15 19 -25 9 -17 56
21 112 19 30 39 54 45 54 5 0 9 7 9 15 0 11 -12 15 -50 15 -50 0 -64 -12 -39
-37 8 -8 6 -18 -7 -38 l-17 -27 -15 27 c-10 20 -11 30 -3 38 26 26 11 37 -49
37 -47 0 -60 -3 -60 -15z"/>
<path d="M1374 1666 c-37 -17 -44 -32 -44 -100 0 -70 19 -88 100 -92 l60 -2 0
33 c0 18 5 35 12 37 26 9 -2 38 -36 38 -41 0 -56 -18 -32 -36 21 -15 13 -34
-13 -34 -28 0 -41 21 -41 67 0 37 4 45 25 55 20 9 28 8 43 -5 10 -10 24 -17
30 -17 13 0 17 46 4 54 -22 13 -80 14 -108 2z"/>
<path d="M1540 1660 c0 -11 5 -20 10 -20 6 0 10 -28 10 -64 0 -36 -4 -68 -10
-71 -5 -3 -10 -13 -10 -21 0 -11 18 -14 85 -14 l85 0 0 29 c0 36 -19 50 -35
28 -7 -10 -24 -17 -39 -17 -21 0 -26 5 -26 25 0 25 23 35 35 15 10 -16 25 -1
25 25 0 26 -21 46 -28 27 -7 -23 -32 -12 -32 13 0 21 5 25 29 25 16 0 31 -6
35 -15 11 -30 36 -17 36 20 l0 35 -85 0 c-78 0 -85 -2 -85 -20z"/>
<path d="M1740 1660 c0 -11 5 -20 10 -20 6 0 10 -28 10 -64 0 -36 -4 -68 -10
-71 -5 -3 -10 -13 -10 -21 0 -10 12 -14 40 -14 28 0 40 4 40 14 0 8 -4 18 -10
21 -5 3 -10 27 -9 53 l1 47 30 -67 c28 -61 34 -68 59 -68 l29 0 0 81 c0 65 4
84 17 94 24 18 7 35 -38 35 -27 0 -39 -4 -39 -14 0 -8 5 -18 10 -21 6 -3 10
-27 10 -53 l0 -47 -32 68 c-31 66 -32 67 -70 67 -31 0 -38 -3 -38 -20z"/>
<path d="M1980 1645 c0 -36 22 -50 34 -20 3 8 10 15 16 15 13 0 13 -127 0
-135 -5 -3 -10 -13 -10 -21 0 -10 13 -14 50 -14 37 0 50 4 50 14 0 8 -4 18
-10 21 -13 8 -13 135 0 135 6 0 13 -7 16 -15 12 -30 34 -16 34 20 l0 35 -90 0
-90 0 0 -35z"/>
<path d="M2194 1669 c-3 -6 -1 -16 5 -22 14 -14 15 -134 1 -142 -5 -3 -10 -13
-10 -21 0 -11 17 -14 80 -14 l80 0 0 35 c0 24 -5 35 -15 35 -8 0 -15 -7 -15
-15 0 -10 -10 -15 -30 -15 l-30 0 0 65 c0 37 4 65 10 65 6 0 10 9 10 20 0 17
-7 20 -39 20 -22 0 -43 -5 -47 -11z"/>
<path d="M2380 1666 c0 -8 5 -18 10 -21 6 -3 10 -35 10 -70 0 -35 -4 -67 -10
-70 -5 -3 -10 -13 -10 -21 0 -11 18 -14 85 -14 l85 0 0 35 c0 36 -22 50 -34
20 -3 -9 -18 -15 -36 -15 -25 0 -30 4 -30 25 0 25 23 35 35 15 13 -21 25 -9
25 25 0 24 -5 35 -15 35 -8 0 -15 -4 -15 -10 0 -5 -7 -10 -15 -10 -9 0 -15 9
-15 25 0 21 5 25 30 25 18 0 33 -6 36 -15 12 -30 34 -16 34 20 l0 35 -85 0
c-67 0 -85 -3 -85 -14z"/>
<path d="M2580 1661 c0 -12 5 -21 10 -21 6 0 10 -28 10 -64 0 -36 -4 -68 -10
-71 -5 -3 -10 -13 -10 -21 0 -10 12 -14 40 -14 28 0 40 4 40 14 0 8 -4 18 -10
21 -5 3 -10 27 -9 53 l1 47 20 -47 c28 -65 49 -63 76 5 l21 52 0 -51 c1 -37
-3 -53 -14 -58 -8 -3 -15 -12 -15 -21 0 -11 12 -15 50 -15 37 0 50 4 50 14 0
8 -4 18 -10 21 -5 3 -10 35 -10 70 0 35 5 67 10 70 6 3 10 13 10 21 0 10 -12
14 -43 14 -42 0 -44 -1 -64 -47 l-20 -48 -12 30 c-20 54 -27 60 -70 63 -36 3
-41 1 -41 -17z"/>
<path d="M2860 1666 c0 -8 5 -18 10 -21 6 -3 10 -35 10 -70 0 -35 -4 -67 -10
-70 -5 -3 -10 -13 -10 -21 0 -11 18 -14 85 -14 l85 0 0 35 c0 35 -16 47 -26
20 -4 -9 -19 -15 -40 -15 -30 0 -34 3 -34 25 0 25 23 35 35 15 13 -21 25 -9
25 25 0 34 -12 46 -25 25 -12 -20 -35 -10 -35 15 0 22 4 25 35 25 24 0 35 -5
35 -15 0 -8 7 -15 15 -15 10 0 15 11 15 35 l0 35 -85 0 c-67 0 -85 -3 -85 -14z"/>
<path d="M3064 1669 c-3 -6 -1 -16 5 -22 14 -14 15 -134 1 -142 -5 -3 -10 -13
-10 -21 0 -10 12 -14 45 -14 44 0 57 13 36 36 -9 9 -22 94 -15 94 2 0 17 -29
33 -65 27 -59 32 -65 60 -65 l31 0 0 85 c0 50 4 85 10 85 6 0 10 9 10 20 0 17
-7 20 -39 20 -43 0 -59 -13 -42 -33 10 -13 28 -106 18 -97 -3 3 -19 33 -37 68
-29 58 -34 62 -65 62 -19 0 -37 -5 -41 -11z"/>
</g>
</svg>
